<svg id="Capa_1" enable-background="new 0 0 511.996 511.996" height="512" viewBox="0 0 511.996 511.996" width="512" xmlns="http://www.w3.org/2000/svg"><g id="XMLID_1609_"><g id="XMLID_564_"><path id="XMLID_621_" d="m491.647 271.297-53.46-92.595 4.34-2.506c9.318-5.38 15.983-14.066 18.769-24.459 2.785-10.394 1.355-21.248-4.024-30.566-11.106-19.236-35.79-25.852-55.025-14.744l-4.34 2.505-53.46-92.595c-4.36-7.552-11.4-12.954-19.823-15.211-8.422-2.257-17.22-1.098-24.772 3.262s-12.955 11.399-15.212 19.822c-1.546 5.77-1.488 11.715.102 17.316l-51.192 57.599c-3.669 4.129-3.296 10.449.832 14.118 4.127 3.668 10.449 3.297 14.118-.831l46.085-51.853 133.895 231.914-223.765 48.002-62.578-108.39 46.58-52.409c3.669-4.129 3.296-10.449-.832-14.118-4.126-3.668-10.448-3.297-14.118.831l-50.301 56.596-83.652 48.296c-11.026 6.366-18.914 16.646-22.209 28.943-3.295 12.299-1.604 25.145 4.762 36.171l32.16 55.702c8.819 15.275 24.874 23.824 41.361 23.824 8.081 0 16.267-2.055 23.753-6.377l23.771-13.724 104.346 104.337c7.785 7.783 18.163 11.838 28.647 11.838 6.928 0 13.903-1.771 20.203-5.409 10.984-6.342 18.233-17.19 19.889-29.766s-2.539-24.932-11.508-33.9l-36.158-36.154 9.862-5.693c7.541-4.354 12.417-11.815 13.377-20.469s-2.16-17.002-8.561-22.904l-12.031-11.092 168.547-36.157c4.048 4.155 9.152 7.163 14.901 8.703 2.813.754 5.666 1.127 8.502 1.127 5.657 0 11.241-1.484 16.271-4.389 7.552-4.359 12.954-11.399 15.211-19.822 2.256-8.423 1.098-17.221-3.263-24.773zm-83.741-145.045 4.34-2.505c9.685-5.594 22.113-2.262 27.706 7.424 5.592 9.685 2.261 22.113-7.424 27.705l-4.339 2.506-19.949-34.553zm-298.265 265.973c-13.212 7.625-30.166 3.084-37.794-10.127l-32.16-55.702c-3.695-6.4-4.676-13.855-2.764-20.994s6.491-13.104 12.891-16.8l76.394-44.105 59.826 103.623zm187.027 81.986c-.837 6.36-4.504 11.848-10.06 15.056-8.009 4.623-18.17 3.286-24.709-3.252l-100.555-100.547 36.706-21.192 92.797 92.788c4.536 4.536 6.658 10.786 5.821 17.147zm-26.716-101.806c1.675 1.544 2.491 3.728 2.24 5.992s-1.527 4.216-3.5 5.355l-14.503 8.373-34.428-34.424 27.78-5.959zm205.638-81.511c-.874 3.263-2.966 5.989-5.892 7.679-2.925 1.688-6.333 2.139-9.597 1.264-3.263-.874-5.99-2.967-7.679-5.893l-147.202-254.964c-1.688-2.925-2.136-6.332-1.262-9.593.875-3.263 2.967-5.989 5.893-7.679 1.949-1.125 4.111-1.7 6.303-1.7 1.099 0 2.204.145 3.293.437 3.263.874 5.99 2.967 7.679 5.893l147.201 254.96c1.689 2.925 2.138 6.333 1.263 9.596z"/><path id="XMLID_1039_" d="m211.13 149.4c2.63 0 5.21-1.07 7.07-2.93s2.93-4.44 2.93-7.07-1.07-5.21-2.93-7.07c-1.86-1.859-4.43-2.93-7.07-2.93-2.63 0-5.21 1.07-7.07 2.93s-2.93 4.44-2.93 7.07 1.07 5.21 2.93 7.07c1.86 1.859 4.44 2.93 7.07 2.93z"/></g></g></svg>